<?xml version="1.0" standalone="no"?>
<!DOCTYPE svg PUBLIC "-//W3C//DTD SVG 20010904//EN"
 "http://www.w3.org/TR/2001/REC-SVG-20010904/DTD/svg10.dtd">
<svg version="1.0" xmlns="http://www.w3.org/2000/svg"
 width="512.000000pt" height="512.000000pt" viewBox="0 0 512.000000 512.000000"
 preserveAspectRatio="xMidYMid meet">

<g transform="translate(0.000000,512.000000) scale(0.100000,-0.100000)"
fill="#000000" stroke="none">
<path d="M546 4949 c-62 -15 -153 -68 -197 -116 -22 -24 -55 -74 -72 -111
l-32 -67 0 -2096 0 -2095 37 -76 c45 -91 103 -147 196 -191 l67 -32 1743 -3
1743 -2 24 24 c24 24 25 30 25 151 0 104 3 127 16 132 10 4 44 -22 103 -81
132 -129 119 -133 353 102 235 234 231 221 102 353 -59 59 -85 93 -81 103 5
13 28 16 132 16 120 0 127 1 150 25 l25 24 0 271 0 271 -25 24 c-23 24 -30 25
-150 25 -104 0 -127 3 -132 16 -4 10 22 44 81 103 129 132 133 119 -102 353
-234 235 -221 231 -353 102 -59 -59 -93 -85 -103 -81 -14 6 -16 104 -16 934
l0 928 -503 502 -502 503 -1245 -1 c-710 -1 -1262 -5 -1284 -10z m2416 -477
l3 -328 37 -76 c45 -91 103 -147 196 -191 l67 -32 328 -3 327 -3 0 -720 0
-719 -215 0 c-216 0 -216 0 -240 -25 -24 -23 -25 -30 -25 -150 0 -104 -3 -127
-16 -132 -10 -4 -44 22 -103 81 -132 129 -119 133 -353 -102 -235 -234 -231
-221 -102 -353 59 -59 85 -93 81 -103 -5 -13 -28 -16 -132 -16 -120 0 -127 -1
-150 -25 l-25 -24 0 -271 0 -271 25 -24 c23 -24 30 -25 150 -25 104 0 127 -3
132 -16 4 -10 -22 -44 -81 -103 -128 -131 -131 -119 91 -343 l177 -178 -1263
0 c-963 0 -1273 3 -1305 12 -55 16 -138 99 -154 154 -18 60 -18 4088 0 4148
15 51 99 137 148 153 25 8 386 11 1217 12 l1182 1 3 -328z m606 -470 c-162 -2
-247 1 -278 10 -59 16 -141 96 -158 154 -8 27 -12 122 -12 280 l0 239 340
-340 340 -340 -232 -3z m352 -1871 c0 -131 8 -144 110 -186 117 -49 118 -49
213 44 l83 80 112 -112 111 -112 -80 -82 c-93 -94 -93 -96 -44 -213 42 -102
55 -110 186 -110 l109 0 0 -160 0 -160 -109 0 c-131 0 -144 -8 -186 -110 -49
-117 -49 -118 44 -213 l80 -83 -112 -112 -112 -111 -82 80 c-94 93 -96 93
-213 44 -102 -42 -110 -55 -110 -186 l0 -109 -160 0 -160 0 0 109 c0 131 -8
144 -110 186 -117 49 -119 49 -213 -44 l-82 -80 -112 111 -112 112 80 83 c93
95 93 96 44 213 -42 102 -55 110 -186 110 l-109 0 0 160 0 160 109 0 c131 0
144 8 186 110 49 117 49 119 -44 213 l-80 82 111 112 112 112 83 -80 c95 -93
96 -93 213 -44 102 42 110 55 110 186 l0 109 160 0 160 0 0 -109z m-482 -1739
l3 -72 -93 0 -92 0 74 75 c41 42 82 74 90 73 11 -3 16 -21 18 -76z"/>
<path d="M745 3975 c-16 -15 -25 -36 -25 -55 0 -19 9 -40 25 -55 l24 -25 511
0 511 0 24 25 c16 15 25 36 25 55 0 19 -9 40 -25 55 l-24 25 -511 0 -511 0
-24 -25z"/>
<path d="M745 3495 c-16 -15 -25 -36 -25 -55 0 -19 9 -40 25 -55 l24 -25 271
0 271 0 24 25 c16 15 25 36 25 55 0 19 -9 40 -25 55 l-24 25 -271 0 -271 0
-24 -25z"/>
<path d="M1545 3495 c-16 -15 -25 -36 -25 -55 0 -19 9 -40 25 -55 l24 -25 991
0 991 0 24 25 c16 15 25 36 25 55 0 19 -9 40 -25 55 l-24 25 -991 0 -991 0
-24 -25z"/>
<path d="M745 3015 c-16 -15 -25 -36 -25 -55 0 -19 9 -40 25 -55 l24 -25 831
0 831 0 24 25 c33 32 33 78 0 110 l-24 25 -831 0 -831 0 -24 -25z"/>
<path d="M2665 3015 c-16 -15 -25 -36 -25 -55 0 -19 9 -40 25 -55 l24 -25 431
0 431 0 24 25 c16 15 25 36 25 55 0 19 -9 40 -25 55 l-24 25 -431 0 -431 0
-24 -25z"/>
<path d="M745 2535 c-16 -15 -25 -36 -25 -55 0 -19 9 -40 25 -55 l24 -25 511
0 511 0 24 25 c16 15 25 36 25 55 0 19 -9 40 -25 55 l-24 25 -511 0 -511 0
-24 -25z"/>
<path d="M2025 2535 c-16 -15 -25 -36 -25 -55 0 -19 9 -40 25 -55 l24 -25 431
0 431 0 24 25 c16 15 25 36 25 55 0 19 -9 40 -25 55 l-24 25 -431 0 -431 0
-24 -25z"/>
<path d="M745 2055 c-16 -15 -25 -36 -25 -55 0 -19 9 -40 25 -55 l24 -25 631
0 631 0 24 25 c16 15 25 36 25 55 0 19 -9 40 -25 55 l-24 25 -631 0 -631 0
-24 -25z"/>
<path d="M2265 2055 c-16 -15 -25 -36 -25 -55 0 -19 9 -40 25 -55 23 -24 31
-25 135 -25 104 0 112 1 135 25 16 15 25 36 25 55 0 19 -9 40 -25 55 -23 24
-31 25 -135 25 -104 0 -112 -1 -135 -25z"/>
<path d="M745 1575 c-16 -15 -25 -36 -25 -55 0 -19 9 -40 25 -55 l24 -25 271
0 271 0 24 25 c16 15 25 36 25 55 0 19 -9 40 -25 55 l-24 25 -271 0 -271 0
-24 -25z"/>
<path d="M1545 1575 c-16 -15 -25 -36 -25 -55 0 -19 9 -40 25 -55 l24 -25 351
0 351 0 24 25 c16 15 25 36 25 55 0 19 -9 40 -25 55 l-24 25 -351 0 -351 0
-24 -25z"/>
<path d="M745 1095 c-16 -15 -25 -36 -25 -55 0 -19 9 -40 25 -55 l24 -25 431
0 431 0 24 25 c16 15 25 36 25 55 0 19 -9 40 -25 55 l-24 25 -431 0 -431 0
-24 -25z"/>
<path d="M1865 1095 c-16 -15 -25 -36 -25 -55 0 -19 9 -40 25 -55 24 -25 26
-25 215 -25 189 0 191 0 215 25 16 15 25 36 25 55 0 19 -9 40 -25 55 -24 25
-26 25 -215 25 -189 0 -191 0 -215 -25z"/>
<path d="M3684 1591 c-48 -12 -133 -62 -160 -94 -14 -17 -37 -53 -52 -81 -22
-43 -26 -64 -26 -136 -1 -70 4 -94 24 -135 31 -64 91 -124 155 -155 71 -35
197 -35 270 0 64 31 124 91 155 155 35 73 35 199 0 270 -32 64 -92 124 -155
154 -54 26 -156 36 -211 22z m140 -165 c44 -18 86 -75 93 -124 20 -152 -160
-241 -268 -133 -124 124 13 325 175 257z"/>
</g>
</svg>
