<?xml version="1.0" standalone="no"?>
<!DOCTYPE svg PUBLIC "-//W3C//DTD SVG 20010904//EN"
 "http://www.w3.org/TR/2001/REC-SVG-20010904/DTD/svg10.dtd">
<svg version="1.0" xmlns="http://www.w3.org/2000/svg"
 width="512.000000pt" height="512.000000pt" viewBox="0 0 512.000000 512.000000"
 preserveAspectRatio="xMidYMid meet">

<g transform="translate(0.000000,512.000000) scale(0.100000,-0.100000)"
fill="#000000" stroke="none">
<path d="M2477 4465 c-50 -17 -85 -50 -108 -100 -18 -38 -19 -107 -19 -1667
l0 -1628 -215 0 -215 0 0 763 c0 493 -4 775 -10 799 -14 50 -55 97 -105 119
-37 17 -79 19 -633 19 -642 0 -619 2 -680 -54 -84 -75 -84 -237 0 -312 59 -55
51 -54 543 -54 l455 0 0 -758 c0 -853 -2 -831 69 -895 22 -20 57 -40 78 -46
51 -15 944 -15 995 -1 50 14 97 55 119 105 18 38 19 110 19 1668 l0 1627 215
0 215 0 0 -762 c0 -494 4 -776 10 -800 14 -50 55 -97 105 -119 37 -17 79 -19
633 -19 563 0 595 1 630 19 75 39 112 101 112 191 0 66 -16 107 -59 153 -52
57 -54 57 -547 57 l-454 0 0 750 c0 519 -3 765 -11 802 -14 65 -73 130 -134
147 -63 17 -958 14 -1008 -4z"/>
</g>
</svg>
