<?xml version="1.0" standalone="no"?>
<!DOCTYPE svg PUBLIC "-//W3C//DTD SVG 20010904//EN"
 "http://www.w3.org/TR/2001/REC-SVG-20010904/DTD/svg10.dtd">
<svg version="1.0" xmlns="http://www.w3.org/2000/svg"
 width="512.000000pt" height="512.000000pt" viewBox="0 0 512.000000 512.000000"
 preserveAspectRatio="xMidYMid meet">

<g transform="translate(0.000000,512.000000) scale(0.100000,-0.100000)"
fill="#000000" stroke="none">
<path d="M263 5106 c-103 -33 -176 -98 -222 -196 l-26 -55 0 -485 0 -485 33
-67 c38 -77 92 -130 171 -167 54 -25 62 -26 241 -26 179 0 187 1 241 26 79 37
133 90 171 167 l33 67 0 485 0 485 -26 56 c-37 79 -90 133 -167 171 -66 33
-67 33 -237 35 -121 2 -182 -1 -212 -11z m331 -302 c14 -13 16 -67 16 -434 0
-367 -2 -421 -16 -434 -23 -23 -245 -23 -268 0 -14 13 -16 67 -16 434 0 367 2
421 16 434 12 13 40 16 134 16 94 0 122 -3 134 -16z"/>
<path d="M1488 5099 c-43 -22 -78 -81 -78 -129 0 -50 35 -107 80 -130 31 -16
59 -20 130 -20 l90 0 0 -450 0 -450 -90 0 c-71 0 -99 -4 -130 -20 -45 -23 -80
-80 -80 -130 0 -50 35 -107 80 -130 37 -19 58 -20 370 -20 312 0 333 1 370 20
45 23 80 80 80 130 0 50 -35 107 -80 130 -31 16 -59 20 -130 20 l-90 0 0 540
c0 522 -1 542 -20 580 -36 71 -69 80 -282 80 -162 -1 -187 -3 -220 -21z"/>
<path d="M2888 5099 c-43 -22 -78 -81 -78 -129 0 -50 35 -107 80 -130 31 -16
59 -20 130 -20 l90 0 0 -450 0 -450 -90 0 c-71 0 -99 -4 -130 -20 -45 -23 -80
-80 -80 -130 0 -50 35 -107 80 -130 37 -19 58 -20 370 -20 312 0 333 1 370 20
45 23 80 80 80 130 0 50 -35 107 -80 130 -31 16 -59 20 -130 20 l-90 0 0 540
c0 522 -1 542 -20 580 -36 71 -69 80 -282 80 -162 -1 -187 -3 -220 -21z"/>
<path d="M4463 5106 c-103 -33 -176 -98 -222 -196 l-26 -55 0 -485 0 -485 33
-67 c38 -77 92 -130 171 -167 54 -25 62 -26 241 -26 179 0 187 1 241 26 79 37
133 90 171 167 l33 67 0 485 0 485 -26 56 c-37 79 -90 133 -167 171 -66 33
-67 33 -237 35 -121 2 -182 -1 -212 -11z m331 -302 c14 -13 16 -67 16 -434 0
-367 -2 -421 -16 -434 -23 -23 -245 -23 -268 0 -14 13 -16 67 -16 434 0 367 2
421 16 434 12 13 40 16 134 16 94 0 122 -3 134 -16z"/>
<path d="M88 3289 c-43 -22 -78 -81 -78 -129 0 -50 35 -107 80 -130 31 -16 59
-20 130 -20 l90 0 0 -450 0 -450 -90 0 c-71 0 -99 -4 -130 -20 -45 -23 -80
-80 -80 -130 0 -50 35 -107 80 -130 37 -19 58 -20 370 -20 312 0 333 1 370 20
45 23 80 80 80 130 0 50 -35 107 -80 130 -31 16 -59 20 -130 20 l-90 0 0 540
c0 522 -1 542 -20 580 -36 71 -69 80 -282 80 -162 -1 -187 -3 -220 -21z"/>
<path d="M1663 3296 c-103 -33 -176 -98 -222 -196 l-26 -55 0 -485 0 -485 33
-67 c38 -77 92 -130 171 -167 54 -25 62 -26 241 -26 179 0 187 1 241 26 79 37
133 90 171 167 l33 67 0 485 0 485 -26 56 c-37 79 -90 133 -167 171 -66 33
-67 33 -237 35 -121 2 -182 -1 -212 -11z m331 -302 c14 -13 16 -67 16 -434 0
-367 -2 -421 -16 -434 -23 -23 -245 -23 -268 0 -14 13 -16 67 -16 434 0 367 2
421 16 434 12 13 40 16 134 16 94 0 122 -3 134 -16z"/>
<path d="M3063 3296 c-103 -33 -176 -98 -222 -196 l-26 -55 0 -485 0 -485 33
-67 c38 -77 92 -130 171 -167 54 -25 62 -26 241 -26 179 0 187 1 241 26 79 37
133 90 171 167 l33 67 0 485 0 485 -26 56 c-37 79 -90 133 -167 171 -66 33
-67 33 -237 35 -121 2 -182 -1 -212 -11z m331 -302 c14 -13 16 -67 16 -434 0
-367 -2 -421 -16 -434 -23 -23 -245 -23 -268 0 -14 13 -16 67 -16 434 0 367 2
421 16 434 12 13 40 16 134 16 94 0 122 -3 134 -16z"/>
<path d="M4288 3289 c-43 -22 -78 -81 -78 -129 0 -50 35 -107 80 -130 31 -16
59 -20 130 -20 l90 0 0 -450 0 -450 -90 0 c-71 0 -99 -4 -130 -20 -45 -23 -80
-80 -80 -130 0 -50 35 -107 80 -130 37 -19 58 -20 370 -20 312 0 333 1 370 20
45 23 80 80 80 130 0 50 -35 107 -80 130 -31 16 -59 20 -130 20 l-90 0 0 540
c0 522 -1 542 -20 580 -36 71 -69 80 -282 80 -162 -1 -187 -3 -220 -21z"/>
<path d="M88 1479 c-43 -22 -78 -81 -78 -129 0 -50 35 -107 80 -130 31 -16 59
-20 130 -20 l90 0 0 -450 0 -450 -90 0 c-71 0 -99 -4 -130 -20 -45 -23 -80
-80 -80 -130 0 -50 35 -107 80 -130 37 -19 58 -20 370 -20 312 0 333 1 370 20
45 23 80 80 80 130 0 50 -35 107 -80 130 -31 16 -59 20 -130 20 l-90 0 0 540
c0 522 -1 542 -20 580 -36 71 -69 80 -282 80 -162 -1 -187 -3 -220 -21z"/>
<path d="M1663 1486 c-103 -33 -176 -98 -222 -196 l-26 -55 0 -485 0 -485 33
-67 c38 -77 92 -130 171 -167 54 -25 62 -26 241 -26 179 0 187 1 241 26 79 37
133 90 171 167 l33 67 0 485 0 485 -26 56 c-37 79 -90 133 -167 171 -66 33
-67 33 -237 35 -121 2 -182 -1 -212 -11z m331 -302 c14 -13 16 -67 16 -434 0
-367 -2 -421 -16 -434 -23 -23 -245 -23 -268 0 -14 13 -16 67 -16 434 0 367 2
421 16 434 23 23 245 23 268 0z"/>
<path d="M2888 1479 c-43 -22 -78 -81 -78 -129 0 -50 35 -107 80 -130 31 -16
59 -20 130 -20 l90 0 0 -450 0 -450 -90 0 c-71 0 -99 -4 -130 -20 -45 -23 -80
-80 -80 -130 0 -50 35 -107 80 -130 37 -19 58 -20 370 -20 312 0 333 1 370 20
45 23 80 80 80 130 0 50 -35 107 -80 130 -31 16 -59 20 -130 20 l-90 0 0 540
c0 522 -1 542 -20 580 -36 71 -69 80 -282 80 -162 -1 -187 -3 -220 -21z"/>
<path d="M4463 1486 c-103 -33 -176 -98 -222 -196 l-26 -55 0 -485 0 -485 33
-67 c38 -77 92 -130 171 -167 54 -25 62 -26 241 -26 179 0 187 1 241 26 79 37
133 90 171 167 l33 67 0 485 0 485 -26 56 c-37 79 -90 133 -167 171 -66 33
-67 33 -237 35 -121 2 -182 -1 -212 -11z m331 -302 c14 -13 16 -67 16 -434 0
-367 -2 -421 -16 -434 -23 -23 -245 -23 -268 0 -14 13 -16 67 -16 434 0 367 2
421 16 434 23 23 245 23 268 0z"/>
</g>
</svg>
